<svg id="Layer_1" width="100px" height="100px" viewBox="0 0 512 512" xmlns="http://www.w3.org/2000/svg" data-name="Layer 1"><path d="m22.536 416.877a26.727 26.727 0 0 0 3.267.181c6.954 0 16.247-2.015 22.186-3.625-2.331 5.111-5.324 10.786-8.267 14.088a6 6 0 0 0 8.959 7.984 54.864 54.864 0 0 0 6.747-10.075c.389.935.821 1.883 1.335 2.854 5.291 10 20.186 14.913 45.4 14.913q5.492 0 11.639-.31a370.8 370.8 0 0 0 41.249-4.641c.656.611 1.306 1.226 1.972 1.832 35.428 32.156 82.572 52.293 129.342 55.247 3.535.223 7.04.332 10.543.332 88.038-.009 164.937-69.231 187.223-136.65a6 6 0 0 0 .239-1.023c11.846-34.518 13.525-55.247 5.134-63.359a12.005 12.005 0 0 0 -12.956-2.354c-6.295 2.41-11.39 9.1-11.851 15.558-.863 12.082-8.756 40.354-12.564 47-28.1 49.047-63.344 72.811-87.966 84.108-26.726 12.264-47.11 12.941-47.3 12.946h-.1a103.257 103.257 0 0 1 -55.425-13.583 5.987 5.987 0 0 0 -1.31-.956c-4.769-2.555-7.47-6.744-8.257-12.806-1.3-10.063 3.279-21.216 5.6-24.428 5.613-.818 14.564-4.321 18.429-5.909a70.412 70.412 0 0 0 16.007 11.447 6 6 0 1 0 5.543-10.642c-5.706-2.972-14.694-9.352-16.5-13.918 0-.171-.008-.343-.014-.517a95.744 95.744 0 0 0 25.346 8.694 6 6 0 0 0 2.071-11.82 89.9 89.9 0 0 1 -15.753-4.659 170.387 170.387 0 0 1 19.726-10.747 6 6 0 1 0 -4.922-10.944 174.9 174.9 0 0 0 -18.417 9.815c2.856-5.667 7.337-13.382 10.687-16.382a6 6 0 1 0 -8.006-8.939c-5.768 5.166-12.1 16.994-14.967 23.178a101.831 101.831 0 0 1 -4.352-17.229 6 6 0 0 0 -11.906 1.5 85.316 85.316 0 0 0 2.4 11.382q-1.228-.348-2.529-.6c-17.864-3.4-36.465 19.381-45.565 32.549a114.926 114.926 0 0 1 -10.078-46.907c0-35.346 20.905-68.676 49.8-93.53a255.817 255.817 0 0 0 25.431 25.585c14.6 12.594 27.677 20.138 39.1 22.6-4.44 10.273.434 26.74 1.487 30.028a6 6 0 1 0 11.428-3.662c-2.017-6.293-3.976-17.595-1.777-21.868a6.027 6.027 0 0 0 .56-1.639c3.047 13.908 11.167 25.144 11.584 25.715a6 6 0 0 0 9.689-7.08 68.153 68.153 0 0 1 -7.668-14.778 66.348 66.348 0 0 1 15.628 4.5c1.609.621 3.473 1.341 5.752 2.194a6 6 0 0 0 4.2-11.24c-2.234-.835-4.059-1.54-5.635-2.148a77.05 77.05 0 0 0 -13.215-4.209c5.931-1.916 13.788-3.952 17.977-3.749a6 6 0 1 0 .6-11.985c-7.081-.348-18.365 2.909-25.136 5.285 1.954-5.266 4.528-11.143 7.223-14.651a6 6 0 1 0 -9.516-7.312 55.654 55.654 0 0 0 -6.138 10.86c-14.936-10.21-41.877-32.122-42.011-48.742a174.065 174.065 0 0 1 23.834-9.8c1.511.615 3.057 1.355 4.666 2.126 4.743 2.272 10.119 4.846 17.44 5.749a6.138 6.138 0 0 0 .635.044c.285 0 .569.007.855.007 38.141 0 84.7-41.894 93.7-50.349 8.912-8.368 24.124-28.943 20.518-48.892l15.1-4.6a6 6 0 0 0 -3.5-11.48l-15.903 4.859c-6.175-9.935-18.116-17.158-35.7-21.507-71.357-17.654-116.442 5.849-118.325 6.858a6.122 6.122 0 0 0 -.7.437c-9.539 6.935-11.705 17.3-13.286 24.869-.807 3.865-1.572 7.527-2.955 9.261a15.287 15.287 0 0 1 -4.225.639l-.208-.016a6.52 6.52 0 0 0 -1.419.072 280.26 280.26 0 0 0 -28.554 4.464c-13.129-9.158-20.7-43.647-23.076-67.941a84.393 84.393 0 0 0 14.773-.933 6 6 0 0 0 -2.14-11.803c-4.494.817-10.976.852-16.593.659 5.2-5.031 12.462-12.923 15.2-18.967a6 6 0 1 0 -10.931-4.949c-1.809 4-7.57 10.36-12.07 14.778 1.8-6.044 2.182-9.135 3.458-19.962l.026-.217a6 6 0 1 0 -11.918-1.4l-.026.217c-1.39 11.8-1.6 13.533-4.149 21.485a67.989 67.989 0 0 1 -9.286-13.208 6 6 0 0 0 -10.729 5.375c.316.632 6.592 12.993 17.563 22.066a5.979 5.979 0 0 0 -1.713-.252c-4.832 0-13.806-6.777-18.635-11.589a6 6 0 0 0 -8.481 8.49c2.418 2.418 14.617 14.078 25.7 15.03-3.291 11.012-3.188 25.6.345 43.653a238.913 238.913 0 0 0 9.243 33.21c-24.543 10.789-45.159 25.895-61.641 45.241-27.555 32.343-42.12 75.733-42.12 125.477 0 28.437 8.148 56.252 23.5 81.461-14.825 6.772-25.39 8.6-28.7 4.805l-.474-.544c-5.381-6.192-11.028-12.148-16.659-13.3a70.963 70.963 0 0 0 -1.928-19.259 6 6 0 0 0 -11.664 2.823c1.555 6.422 2.687 17.836.184 21.938-.04.065-.071.132-.108.2-.052.046-.1.1-.156.144a76.956 76.956 0 0 0 -9.385-24.605 6 6 0 0 0 -10.177 6.357 68.14 68.14 0 0 1 6.6 15.383 65.188 65.188 0 0 1 -14.944-5.554c-1.64-.774-3.554-1.678-5.918-2.765a6 6 0 0 0 -5.01 10.905c2.317 1.065 4.2 1.951 5.8 2.711a77.959 77.959 0 0 0 12.428 5.031c-6.031 1.472-13.932 2.911-18.092 2.4a6 6 0 1 0 -1.471 11.909zm235.446-51.262c10.622 2.023 11.258 12.889 10.861 18.452-6.014 2.347-11.9 4.2-13.55 4.22-8.658 0-13.273 16.641-14.11 19.977a50.591 50.591 0 0 0 -1.6 13.681 113.765 113.765 0 0 1 -18.571-23.4c8.178-13.045 25.713-35.074 36.97-32.93zm73.565-85.737c-.342 1.025-.645 1.967-.9 2.775-10.277 2.027-25.328-5.008-42.873-20.113a245.167 245.167 0 0 1 -24.03-24.14 194.608 194.608 0 0 1 18.941-12.639c5.227 23.752 37.73 46.822 48.862 54.117zm62.513-101.6a3.15 3.15 0 1 1 3.149-3.15 3.153 3.153 0 0 1 -3.149 3.154zm-20.476-79.302a3.15 3.15 0 1 1 -3.149-3.149 3.152 3.152 0 0 1 3.149 3.149zm-168.578 11.624c-5.42-27.69-1.236-40.685 3.967-46.779.527.041 1.135.085 1.776.13 1.357 14.827 6.226 52.873 21.458 71.727q-9.612 2.614-18.592 5.937a227.984 227.984 0 0 1 -8.609-31.015zm-55.04 88.538c16.236-19.057 36.894-33.716 61.747-43.892a5.946 5.946 0 0 0 .665-.22 6.019 6.019 0 0 0 .627-.3 211.536 211.536 0 0 1 32.812-10.054 6.151 6.151 0 0 0 .686-.146 265.344 265.344 0 0 1 28.531-4.6 5.937 5.937 0 0 0 1.349-.06c4.183-.217 9.317-.891 12.359-4.059 3.92-4.083 5.121-9.831 6.282-15.39 1.412-6.753 2.746-13.139 8.248-17.357 2.808-1.392 22.347-10.479 54.045-11.626a15.152 15.152 0 1 0 26.734.948 211.669 211.669 0 0 1 28.649 5.062c17.809 4.406 28.159 11.695 30.766 21.665 3.667 14.03-8.232 31.713-16.594 39.564-1.678 1.576-8.32 7.706-17.738 15.051a15.146 15.146 0 1 0 -21.534 15.092c-17.971 11.115-33.831 16.954-46.222 16.954h-.325c-5.221-.7-9.2-2.605-13.412-4.622a68.958 68.958 0 0 0 -7.778-3.333 6 6 0 0 0 -3.695-.044 186.121 186.121 0 0 0 -30.168 12.466 6.125 6.125 0 0 0 -.825.426 206.545 206.545 0 0 0 -33.463 21.892c-.111.078-.223.152-.33.238-.135.107-.26.222-.382.338a192.44 192.44 0 0 0 -19.517 18.146c-25.082 26.89-38.895 58.21-38.895 88.192a127.211 127.211 0 0 0 38.812 91.267c23.526 22.617 54.009 34.385 85.8 33.146 1.562-.043 23-.868 51.367-13.757 26.4-12 64.138-37.231 93.979-89.328 5-8.724 13.18-38.921 14.121-52.113.174-2.43 3.237-5.166 4.573-5.337.77 1.018 5.847 9.889-8.342 51.1a8.863 8.863 0 0 0 -.313 1.19c-.019.072-.035.144-.051.217-11.074 32.992-35.782 65.684-67.879 89.786-35.752 26.847-77.492 40.237-117.533 37.71-44.1-2.785-88.583-21.8-122.032-52.156-35.068-31.828-54.379-72.442-54.379-114.359 0-46.856 13.574-87.554 39.255-117.697zm-65.989 211.288.49.563c7.629 8.745 22.181 7.915 44.41-2.554a188.714 188.714 0 0 0 15.685 19.3c-7.96 1.15-19.483 2.564-31.363 3.163-37.475 1.89-44.555-5.821-45.829-8.229-2.376-4.493-2.8-8.508-1.3-12.276 1.891-4.748 6.364-7.969 8.524-9.112 1.28.725 3.951 2.895 9.383 9.145z"/></svg>